<?xml version="1.0" encoding="utf-8"?>
<!-- Generator: Adobe Illustrator 25.0.1, SVG Export Plug-In . SVG Version: 6.00 Build 0)  -->
<svg version="1.1" id="Layer_1" xmlns="http://www.w3.org/2000/svg" xmlns:xlink="http://www.w3.org/1999/xlink" x="0px" y="0px"
	 viewBox="0 0 749 526.2" style="enable-background:new 0 0 749 526.2;" xml:space="preserve">
<style type="text/css">
	.st0{fill:url(#SVGID_1_);}
</style>
<linearGradient id="SVGID_1_" gradientUnits="userSpaceOnUse" x1="758.4038" y1="297.3567" x2="465.8081" y2="277.4418">
	<stop  offset="0" style="stop-color:#FFFFFF;stop-opacity:0"/>
	<stop  offset="1" style="stop-color:#FCCA00"/>
</linearGradient>
<path class="st0" d="M744.9,460.7c0,0-82.3,13.6-129.8-28.5c-52-38.4-119.3-39-124.3-86.2c14.1-32.1,4.9-74.1-20.1-97.3
	c62-68.2,8-188.5-85.7-185.3c-35.5-78.4-160.7-87.9-201.5-7.3C128.2,7.3,32.4,51,35,126c0,21.6,7.6,41.5,20.2,57
	c-8.4,14.2-12.3,32.4-10.3,49.6c-97.6,67.4-22,232.3,94.1,199.6c-2,51.2,39.4,94.1,90.6,94c33.4,0,62.6-18.1,78.3-44.9
	c10.9,29,51.6,41,76.6,21.8c45.3,10,121.7,19.8,163.9-14.1C607.4,453,777.4,505.1,744.9,460.7z"/>
</svg>
